<svg id="Layer_1" data-name="Layer 1" xmlns="http://www.w3.org/2000/svg" xmlns:xlink="http://www.w3.org/1999/xlink" viewBox="0 0 679.266 480">
  <defs>
    <style>
      .cls-1 {
        fill: none;
      }

      .cls-2 {
        clip-path: url(#clip-path);
      }

      .cls-3 {
        fill: #fff;
      }

      .cls-4 {
        fill: #bf0a30;
      }
    </style>
    <clipPath id="clip-path" transform="translate(19.633 -156)">
      <rect class="cls-1" y="156" width="612" height="480"/>
    </clipPath>
  </defs>
  <title>canada-flag-country-nation-union-empire-3d77c6a10f4a8a61</title>
  <g class="cls-2">
    <rect class="cls-3" x="169.817" width="339.633" height="480"/>
    <path class="cls-4" d="M-19.633,156H150.184V636H-19.633Zm509.449,0H659.633V636H489.82ZM200.973,387.945l-13.188,4.508,61.363,53.856c4.641,13.843-1.613,17.921-5.6,25.183l66.621-8.457-1.734,67.043,13.8-.4L319.223,463.2,385.91,471.1c-4.129-8.719-7.8-13.344-3.984-27.282L443.254,392.8,432.52,388.91c-8.774-6.769,3.792-32.609,5.687-48.914,0,0-35.8,12.313-38.152,5.871l-9.121-17.519-32.575,35.785c-3.558.851-5.074-.563-5.91-3.571L367.5,285.781l-23.832,13.4c-2,.855-3.988.117-5.305-2.207l-22.922-45.993L291.809,298.75c-1.782,1.711-3.567,1.91-5.047.746l-22.692-12.73,13.621,74.2c-1.082,2.945-3.679,3.773-6.73,2.18L239.82,327.762c-4.074,6.527-6.832,17.191-12.218,19.582-5.383,2.238-23.418-4.524-35.5-7.16,4.129,14.9,17.039,39.656,8.867,47.773Z" transform="translate(19.633 -156)"/>
  </g>
</svg>
