<svg id="Layer_1" data-name="Layer 1" xmlns="http://www.w3.org/2000/svg" xmlns:xlink="http://www.w3.org/1999/xlink" viewBox="0 0 30 29">
  <defs>
    <style>
      .cls-1 {
        fill: none;
      }

      .cls-2 {
        clip-path: url(#clip-path);
      }

      .cls-3 {
        fill: #fff;
      }
    </style>
    <clipPath id="clip-path" transform="translate(-584 -386)">
      <rect class="cls-1" x="584" y="386" width="30" height="29"/>
    </clipPath>
  </defs>
  <title>chick</title>
  <g class="cls-2">
    <path class="cls-3" d="M594.613,386a.455.455,0,0,0-.144.023A2.169,2.169,0,0,0,593,388.1a5.489,5.489,0,0,0-2.555,9.593,9.728,9.728,0,0,0-2.254,1.3l-.316-.316-.024-.024a.5.5,0,0,0-.539-.113h-.011l-2.2.879a.51.51,0,0,0-.293.32,18.3,18.3,0,0,0-.816,5.145c0,3.172.84,5.926,2.672,7.629A10.469,10.469,0,0,0,594,415H594a10.469,10.469,0,0,0,7.324-2.492,5.453,5.453,0,0,0,.484-.524c.02.036.032.071.051.1,0,.008,0,.012,0,.016l0,.007h0a.2.2,0,0,0,.027.063.025.025,0,0,0,.008.019l.008.012a.5.5,0,0,0,.156.156,5.513,5.513,0,0,0,3.156,2.211,13.134,13.134,0,0,0,4.469.387,22.632,22.632,0,0,0,3.918-.578.5.5,0,0,0,.371-.379.5.5,0,0,0-.179-.5l-1.305-1.027.836-3.118a.5.5,0,0,0-.262-.578l-2.406-1.191.172-2.688a.494.494,0,0,0-.278-.48l-2.468-1.223-.426-2.968a.5.5,0,0,0-.481-.43v0a.507.507,0,0,0-.351.129,20.957,20.957,0,0,0-2.93,3.355,17.624,17.624,0,0,0-.312-1.945.5.5,0,0,0-.3-.36l-2.375-.949a.578.578,0,0,0-.1-.14,9.552,9.552,0,0,0-3.277-2.192,5.479,5.479,0,0,0-2.141-9.5,6.524,6.524,0,0,1,3.278.02.5.5,0,1,0,.257-.965,7.481,7.481,0,0,0-2.921-.192,7.752,7.752,0,0,0-1.879.508,1.055,1.055,0,0,1,.617-.594.5.5,0,0,0-.145-.98ZM594,389a4.5,4.5,0,0,1,2.309,8.355.5.5,0,0,0-.368.489.5.5,0,0,0,.375.48,8.524,8.524,0,0,1,2.746,1.364L596.5,401.4l-2.723-1.816a.51.51,0,0,0-.554,0l-2.657,1.773L588.91,399.7a8.539,8.539,0,0,1,2.8-1.391.5.5,0,0,0-.051-.976A4.495,4.495,0,0,1,594,389Zm-1.75,2.5a.75.75,0,1,0,.75.75.75.75,0,0,0-.75-.75Zm4,0a.75.75,0,1,0,.75.75.75.75,0,0,0-.75-.75Zm-2.23,2.5a1.243,1.243,0,0,0-1.02.586L594,396l1-1.414a1.258,1.258,0,0,0-.98-.586Zm-6.637,5.586,2.765,2.766a.5.5,0,0,0,.629.062L593.5,400.6l2.723,1.812a.5.5,0,0,0,.554,0l2.782-1.852,3.093,1.239a15.916,15.916,0,0,1,.348,3.078c0,2.992-.809,5.457-2.355,6.9A9.472,9.472,0,0,1,594,414H594a9.472,9.472,0,0,1-6.641-2.223c-1.546-1.441-2.355-3.906-2.355-6.9a17.12,17.12,0,0,1,.738-4.637Zm19.457,1.883.305,2.133a.506.506,0,0,0,.273.375l2.406,1.191-.172,2.687a.5.5,0,0,0,.278.481l2.336,1.156-.813,3.043a.5.5,0,0,0,.176.52l.652.515a21.482,21.482,0,0,1-2.644.391,12.112,12.112,0,0,1-4.125-.348,4.42,4.42,0,0,1-2.742-1.933l0-.012a3.06,3.06,0,0,1-.266-.6,11.726,11.726,0,0,0,1.5-6.144l.234-.352a20.819,20.819,0,0,1,2.61-3.1Z" transform="translate(-584 -386)"/>
  </g>
</svg>
