<svg id="Layer_1" data-name="Layer 1" xmlns="http://www.w3.org/2000/svg" xmlns:xlink="http://www.w3.org/1999/xlink" viewBox="0 0 24 23">
  <defs>
    <style>
      .cls-1 {
        fill: none;
      }

      .cls-2 {
        clip-path: url(#clip-path);
      }

      .cls-3 {
        fill: #fff;
      }
    </style>
    <clipPath id="clip-path" transform="translate(-588 -389)">
      <rect class="cls-1" x="588" y="389" width="24" height="23"/>
    </clipPath>
  </defs>
  <title>eggduo</title>
  <g class="cls-2">
    <path class="cls-3" d="M596.938,389.023A5.748,5.748,0,0,0,593,390.805a14.035,14.035,0,0,0-2.719,3.894A20.874,20.874,0,0,0,588,402.957c0,2.828.75,5.285,2.391,6.816A9.376,9.376,0,0,0,596.938,412h.007a12.238,12.238,0,0,0,2.684-.285,7.97,7.97,0,0,0,3.758.1c2.191-.5,4.07-2.257,5.484-4.707a20.861,20.861,0,0,0,2.16-8.293,13.907,13.907,0,0,0-.406-4.722,5.733,5.733,0,0,0-2.523-3.516.507.507,0,0,0-.223-.066,5.078,5.078,0,0,0-1.883-.57,7.059,7.059,0,0,0-2.207.207,12.007,12.007,0,0,0-2.57,1.015c-.11-.117-.211-.242-.328-.355a5.758,5.758,0,0,0-3.946-1.782Zm0,1h.007a4.763,4.763,0,0,1,3.254,1.5c.18.172.348.368.52.563,0,0,.008.008.008.012.171.195.335.4.5.609l.1.133c.145.191.278.386.41.59.075.109.145.222.215.336.094.148.188.3.274.453.172.3.34.609.492.922.176.347.34.7.5,1.062v0c.156.359.3.723.434,1.086.047.125.082.25.125.371a23.6,23.6,0,0,1,.8,2.777v0a12.515,12.515,0,0,1,.321,2.508,11.92,11.92,0,0,1-.3,2.754,6.476,6.476,0,0,1-1.777,3.328,6.012,6.012,0,0,1-.641.52c-.055.039-.113.074-.172.109a5.312,5.312,0,0,1-.543.324c-.074.043-.148.078-.226.117a5.882,5.882,0,0,1-.618.266c-.062.027-.129.055-.195.078a8.64,8.64,0,0,1-.891.266,11.353,11.353,0,0,1-2.578.281h-.007a8.367,8.367,0,0,1-5.864-1.961c-1.359-1.266-2.074-3.434-2.074-6.082a20.505,20.505,0,0,1,2.172-7.812,13.277,13.277,0,0,1,2.516-3.618,4.764,4.764,0,0,1,3.25-1.5Zm8.98.915a3.916,3.916,0,0,1,1.68.5.016.016,0,0,1,.007.011,4.737,4.737,0,0,1,2.059,2.922,13.044,13.044,0,0,1,.371,4.383A20.458,20.458,0,0,1,608,406.609c-1.324,2.293-3.031,3.817-4.84,4.231a5.272,5.272,0,0,1-1.105-.035,7.27,7.27,0,0,0,1.336-.953c.031-.024.066-.047.1-.075a7.034,7.034,0,0,0,1.813-2.925q.145-.435.257-.9v0c.075-.3.133-.621.18-.949v0c.051-.324.086-.656.11-1v0c.023-.336.035-.684.035-1.035v0c0-.254-.012-.531-.039-.82s-.063-.594-.114-.914v0c-.046-.321-.109-.653-.183-1v0c-.074-.34-.156-.692-.254-1.051v0c-.1-.359-.207-.726-.324-1.1v0c-.118-.367-.25-.742-.391-1.121a24.222,24.222,0,0,0-.973-2.242,16.081,16.081,0,0,0-1.691-2.722,10.708,10.708,0,0,1,2.109-.856,6.042,6.042,0,0,1,1.891-.18Zm-10.367.523a.517.517,0,0,0-.305.117,11.6,11.6,0,0,0-1.976,2.02,11.368,11.368,0,0,0-.786,1.289c-.109.215-.207.429-.293.644a.508.508,0,0,0,.059.508.5.5,0,0,0,.867-.129c.078-.187.164-.379.262-.57a9.273,9.273,0,0,1,.707-1.16,10.789,10.789,0,0,1,1.8-1.828.5.5,0,0,0-.336-.891Zm-3.481,5.5a.5.5,0,0,0,0,1,.5.5,0,1,0,0-1Z" transform="translate(-588 -389)"/>
  </g>
</svg>
