<svg id="Layer_1" data-name="Layer 1" xmlns="http://www.w3.org/2000/svg" viewBox="0 0 22.238 20.768">
  <defs>
    <style>
      .cls-1 {
        fill: none;
        stroke: #fff;
        stroke-linecap: round;
        stroke-linejoin: round;
        stroke-width: 0.75px;
      }

      .cls-2 {
        fill: #fff;
      }
    </style>
  </defs>
  <title>henicon</title>
  <path class="cls-1" d="M595.978,346.559c-1.666.472-2.6,1.836-3.989,5.034a1.191,1.191,0,0,1-.985.726c-2.2.185-9.312-1.9-11.254-3.738,0,0-.225,4.525,1.22,5.259,0,0-1.36-.368-1.721-1.068,0,0,1.2,14.317,14.752,11.085,1.921-.458,4.732-2.2,5.6-3.973,1.078-2.213,1.746-5.716-.611-10.358h1.594a3.037,3.037,0,0,0-1.455-1.587l-.2-.357a2.25,2.25,0,0,0-1.778-1.129A3.1,3.1,0,0,0,595.978,346.559Z" transform="translate(-578.873 -343.938)"/>
  <path class="cls-1" d="M591.618,355.624c-1.185.393-5.263.145-5.263.145s1.131,4.273,5.263,3.981" transform="translate(-578.873 -343.938)"/>
  <path class="cls-1" d="M600,348.58s1.656-1.986,0-1.538c0,0-.781-3.073-1.5-1.333,0,0-2.936-2.65-2.938-.646,0,.719,1.345.645.688,1.373" transform="translate(-578.873 -343.938)"/>
  <path class="cls-2" d="M596.862,348.973a.645.645,0,0,0,0-1.29.645.645,0,0,0,0,1.29Z" transform="translate(-578.873 -343.938)"/>
</svg>
