<svg id="Layer_1" data-name="Layer 1" xmlns="http://www.w3.org/2000/svg" xmlns:xlink="http://www.w3.org/1999/xlink" viewBox="0 0 912.008 480.004">
  <defs>
    <style>
      .cls-1 {
        fill: none;
      }

      .cls-2 {
        clip-path: url(#clip-path);
      }

      .cls-3 {
        fill: #bd3d44;
      }

      .cls-3, .cls-4 {
        fill-rule: evenodd;
      }

      .cls-4 {
        fill: #fff;
      }

      .cls-5 {
        fill: #192f5d;
      }
    </style>
    <clipPath id="clip-path" transform="translate(0 -156)">
      <rect class="cls-1" y="156" width="612" height="480"/>
    </clipPath>
  </defs>
  <title>united-states-of-america-flag-country-nation-union-empire-3fa5b52263469f9b</title>
  <g>
    <g class="cls-2">
      <path class="cls-3" d="M0,156H912.008v36.922H0Zm0,73.848H912.008V266.77H0ZM0,303.7H912.008v36.922H0Zm0,73.844H912.008v36.926H0Zm0,73.848H912.008v36.925H0Zm0,73.847H912.008v36.922H0Zm0,73.848H912.008V636H0Z" transform="translate(0 -156)"/>
      <path class="cls-4" d="M0,192.922H912.008v36.926H0ZM0,266.77H912.008V303.7H0Zm0,73.847H912.008v36.922H0Zm0,73.848H912.008v36.922H0Zm0,73.847H912.008v36.922H0Zm0,73.844H912.008v36.926H0Z" transform="translate(0 -156)"/>
    </g>
    <rect class="cls-5" width="364.801" height="258.461"/>
    <path class="cls-4" d="M30.4,167.062l3.321,10.215H44.461L35.77,183.59,39.09,193.8,30.4,187.492,21.711,193.8l3.32-10.215-8.691-6.313H27.082Zm60.8,0,3.321,10.215h10.742L96.57,183.59,99.891,193.8,91.2,187.492,82.512,193.8l3.316-10.215-8.687-6.313H87.883Zm60.805,0,3.316,10.215h10.742l-8.691,6.313,3.32,10.215L152,187.492l-8.692,6.313,3.321-10.215-8.692-6.313h10.743Zm60.8,0,3.32,10.215h10.738l-8.687,6.313,3.316,10.215-8.687-6.313-8.692,6.313,3.321-10.215-8.692-6.313H209.48Zm60.8,0,3.32,10.215h10.742l-8.691,6.313,3.32,10.215-8.691-6.313-8.688,6.313,3.316-10.215-8.687-6.313h10.738Zm60.8,0,3.317,10.215h10.742l-8.692,6.313,3.321,10.215-8.688-6.313-8.691,6.313,3.32-10.215-8.691-6.313h10.742ZM60.8,192.91l3.32,10.215H74.863l-8.691,6.313,3.32,10.214L60.8,213.34l-8.688,6.312,3.317-10.214-8.688-6.313H57.484Zm60.8,0,3.316,10.215H135.66l-8.691,6.313,3.32,10.214L121.6,213.34l-8.692,6.312,3.32-10.214-8.691-6.313h10.742Zm60.8,0,3.317,10.215h10.742l-8.688,6.313,3.317,10.214L182.4,213.34l-8.691,6.312,3.32-10.214-8.691-6.313h10.742Zm60.8,0,3.32,10.215h10.743l-8.692,6.313,3.321,10.214L243.2,213.34l-8.691,6.312,3.324-10.214-8.691-6.313h10.742Zm60.8,0,3.316,10.215h10.742l-8.691,6.313,3.32,10.214L304,213.34l-8.692,6.312,3.321-10.214-8.692-6.313h10.743ZM30.4,218.754l3.321,10.215H44.461l-8.691,6.316L39.09,245.5,30.4,239.188,21.711,245.5l3.32-10.215-8.691-6.316H27.082Zm60.8,0,3.321,10.215h10.742l-8.692,6.316L99.891,245.5,91.2,239.188,82.512,245.5l3.316-10.215-8.687-6.316H87.883Zm60.805,0,3.316,10.215h10.742l-8.691,6.316,3.32,10.215L152,239.188l-8.692,6.312,3.321-10.215-8.692-6.316h10.743Zm60.8,0,3.32,10.215h10.738l-8.687,6.316,3.316,10.215-8.687-6.312-8.692,6.312,3.321-10.215-8.692-6.316H209.48Zm60.8,0,3.32,10.215h10.742l-8.691,6.316,3.32,10.215-8.691-6.312-8.688,6.312,3.316-10.215-8.687-6.316h10.738Zm60.8,0,3.317,10.215h10.742l-8.692,6.316,3.321,10.215-8.688-6.312-8.691,6.312,3.32-10.215-8.691-6.316h10.742ZM60.8,244.6l3.32,10.214H74.863l-8.691,6.313,3.32,10.219L60.8,265.031l-8.688,6.317,3.317-10.219-8.688-6.313H57.484Zm60.8,0,3.316,10.214H135.66l-8.691,6.313,3.32,10.219-8.687-6.317-8.692,6.317,3.32-10.219-8.691-6.313h10.742Zm60.8,0,3.317,10.214h10.742l-8.688,6.313,3.317,10.219-8.688-6.317-8.691,6.317,3.32-10.219-8.691-6.313h10.742Zm60.8,0,3.32,10.214h10.743l-8.692,6.313,3.321,10.219-8.692-6.317-8.691,6.317,3.32-10.219-8.687-6.313h10.738Zm60.8,0,3.316,10.214h10.742l-8.691,6.313,3.32,10.219L304,265.031l-8.692,6.317,3.321-10.219-8.692-6.313h10.743ZM30.4,270.449l3.321,10.215H44.461l-8.691,6.313,3.32,10.214L30.4,290.879l-8.687,6.312,3.32-10.214-8.691-6.313H27.082Zm60.8,0,3.321,10.215h10.742l-8.692,6.313,3.321,10.214L91.2,290.879l-8.687,6.312,3.316-10.214-8.687-6.313H87.883Zm60.805,0,3.316,10.215h10.742l-8.691,6.313,3.32,10.214L152,290.879l-8.692,6.312,3.321-10.214-8.692-6.313h10.743Zm60.8,0,3.32,10.215h10.738l-8.687,6.313,3.316,10.214-8.687-6.312-8.692,6.312,3.321-10.214-8.692-6.313H209.48Zm60.8,0,3.32,10.215h10.742l-8.691,6.313,3.32,10.214-8.691-6.312-8.688,6.312,3.316-10.214-8.687-6.313h10.738Zm60.8,0,3.317,10.215h10.742l-8.692,6.313,3.321,10.214-8.688-6.312-8.691,6.312,3.32-10.214-8.691-6.313h10.742ZM60.8,296.293l3.32,10.219H74.863l-8.691,6.312,3.32,10.215L60.8,316.727l-8.688,6.312,3.317-10.215-8.688-6.312H57.484Zm60.8,0,3.316,10.219H135.66l-8.691,6.312,3.32,10.215-8.687-6.312-8.692,6.312,3.32-10.215-8.691-6.312h10.742Zm60.8,0,3.317,10.219h10.742l-8.688,6.312,3.317,10.215-8.688-6.312-8.691,6.312,3.32-10.215-8.691-6.312h10.742Zm60.8,0,3.32,10.219h10.743l-8.692,6.312,3.321,10.215-8.692-6.312-8.691,6.312,3.32-10.215-8.687-6.312h10.738Zm60.8,0,3.316,10.219h10.742l-8.691,6.312,3.32,10.215L304,316.727l-8.692,6.312,3.321-10.215-8.692-6.312h10.743Z" transform="translate(0 -156)"/>
    <path class="cls-4" d="M30.4,322.141l3.321,10.214H44.461l-8.691,6.317,3.32,10.215L30.4,342.57l-8.687,6.317,3.32-10.215-8.691-6.317H27.082Zm60.8,0,3.321,10.214h10.742l-8.692,6.317,3.321,10.215L91.2,342.57l-8.687,6.317,3.316-10.215-8.687-6.317H87.883Zm60.805,0,3.316,10.214h10.742l-8.691,6.317,3.32,10.215L152,342.57l-8.692,6.317,3.321-10.215-8.692-6.317h10.743Zm60.8,0,3.32,10.214h10.738l-8.687,6.317,3.316,10.215L212.8,342.57l-8.692,6.317,3.321-10.215-8.692-6.317H209.48Zm60.8,0,3.32,10.214h10.742l-8.691,6.317,3.32,10.215L273.6,342.57l-8.688,6.317,3.316-10.215-8.687-6.317h10.738Zm60.8,0,3.317,10.214h10.742l-8.692,6.317,3.321,10.215-8.688-6.317-8.691,6.317,3.32-10.215-8.691-6.317h10.742ZM60.8,347.988l3.32,10.215H74.863l-8.691,6.313,3.32,10.214L60.8,368.418l-8.688,6.312,3.317-10.214L46.742,358.2H57.484Zm60.8,0,3.316,10.215H135.66l-8.691,6.313,3.32,10.214-8.687-6.312-8.692,6.312,3.32-10.214-8.691-6.313h10.742Zm60.8,0,3.317,10.215h10.742l-8.688,6.313,3.317,10.214-8.688-6.312-8.691,6.312,3.32-10.214L168.34,358.2h10.742Zm60.8,0,3.32,10.215h10.743l-8.692,6.313,3.321,10.214-8.692-6.312-8.691,6.312,3.32-10.214-8.687-6.313h10.738Zm60.8,0L307.32,358.2h10.742l-8.691,6.313,3.32,10.214L304,368.418l-8.692,6.312,3.321-10.214-8.692-6.313h10.743Z" transform="translate(0 -156)"/>
    <path class="cls-4" d="M30.4,373.832l3.321,10.215H44.461l-8.691,6.316,3.32,10.215L30.4,394.266l-8.687,6.312,3.32-10.215-8.691-6.316H27.082Zm60.8,0,3.321,10.215h10.742l-8.692,6.316,3.321,10.215L91.2,394.266l-8.687,6.312,3.316-10.215-8.687-6.316H87.883Zm60.805,0,3.316,10.215h10.742l-8.691,6.316,3.32,10.215L152,394.266l-8.692,6.312,3.321-10.215-8.692-6.316h10.743Zm60.8,0,3.32,10.215h10.738l-8.687,6.316,3.316,10.215-8.687-6.312-8.692,6.312,3.321-10.215-8.692-6.316H209.48Zm60.8,0,3.32,10.215h10.742l-8.691,6.316,3.32,10.215-8.691-6.312-8.688,6.312,3.316-10.215-8.687-6.316h10.738Zm60.8,0,3.317,10.215h10.742l-8.692,6.316,3.321,10.215-8.688-6.312-8.691,6.312,3.32-10.215-8.691-6.316h10.742Z" transform="translate(0 -156)"/>
  </g>
</svg>
